<svg viewBox="0 0 189 242" fill="none" xmlns="http://www.w3.org/2000/svg">
  <path d="M47.59 45.16L0.17 235.37c-1.19 4.78 4.21 8.48 8.27 5.65l73.52-51.24c3.51-2.45 5.22-6.75 4.34-10.93L58.03 45.34c-1.17-5.54-9.07-5.68-10.44-.18z" fill="url(#g1)"/>
  <path d="M131.33 236.83l57.39-230.2c1.19-4.78-4.21-8.48-8.27-5.65L90.87 63.42c-3.52 2.45-5.22 6.75-4.34 10.93l34.36 162.29c1.17 5.54 9.07 5.68 10.44.19z" fill="url(#g2)"/>
  <defs>
    <linearGradient id="g1" x1="43.26" y1="242" x2="43.26" y2="41.11" gradientUnits="userSpaceOnUse">
      <stop stop-color="#50D2C1"/><stop offset="1" stop-color="#33998C"/>
    </linearGradient>
    <linearGradient id="g2" x1="137.59" y1="0" x2="137.59" y2="240.88" gradientUnits="userSpaceOnUse">
      <stop stop-color="#50D2C1"/><stop offset="1" stop-color="#33998C"/>
    </linearGradient>
  </defs>
</svg>
